<?xml version="1.0" standalone="no"?>
<!DOCTYPE svg PUBLIC "-//W3C//DTD SVG 20010904//EN"
 "http://www.w3.org/TR/2001/REC-SVG-20010904/DTD/svg10.dtd">
<svg version="1.0" xmlns="http://www.w3.org/2000/svg"
 width="1280.000000pt" height="1163.000000pt" viewBox="0 0 1280.000000 1163.000000"
 preserveAspectRatio="xMidYMid meet">
<g transform="translate(0.000000,1163.000000) scale(0.100000,-0.100000)"
fill="#000000" stroke="none">
<path d="M10990 11607 c-132 -45 -262 -159 -790 -693 -591 -598 -960 -992
-1393 -1486 l-252 -288 -2165 0 -2165 1 -85 101 c-429 515 -1145 1284 -1747
1878 -175 173 -369 355 -429 404 l-111 90 -164 -3 c-386 -5 -635 -53 -888
-172 -351 -165 -607 -453 -726 -814 -57 -174 -79 -376 -73 -658 3 -142 7 -179
22 -210 25 -51 368 -361 1803 -1627 l470 -415 7 -1480 c3 -814 9 -1536 12
-1605 l6 -125 62 -59 c83 -79 321 -269 747 -594 196 -150 373 -287 394 -306
l39 -33 -17 -27 c-86 -131 -1442 -1570 -1531 -1625 -19 -12 -110 -41 -202 -65
-206 -54 -264 -75 -344 -127 -179 -115 -256 -281 -229 -493 27 -211 136 -384
428 -677 282 -282 492 -427 695 -479 130 -33 232 -22 349 36 127 64 200 146
250 281 40 108 56 181 101 486 16 109 30 137 120 241 84 97 1138 1093 1475
1394 l124 111 31 -16 c55 -28 286 -193 608 -432 454 -337 634 -466 705 -503
62 -33 62 -33 96 -15 18 10 296 215 617 455 562 420 899 665 949 691 20 11 26
10 50 -11 172 -155 699 -650 1427 -1340 l461 -437 6 -158 c6 -182 29 -301 82
-430 103 -255 247 -363 481 -363 230 0 463 133 788 449 255 249 402 460 451
650 21 83 21 221 0 294 -20 71 -79 162 -136 211 -90 77 -365 189 -502 203 -52
5 -68 13 -116 51 -117 93 -561 548 -1192 1222 -396 423 -539 582 -539 602 0
22 170 163 485 403 143 109 302 232 354 274 52 42 105 84 117 94 l24 19 0
1413 c0 1381 0 1413 19 1426 11 8 212 185 448 394 235 210 840 744 1343 1189
503 444 920 817 927 829 28 54 40 314 23 499 -23 241 -63 395 -149 573 -90
184 -210 336 -355 449 -257 201 -529 302 -954 355 -206 26 -261 26 -342 -2z
m-2293 -2787 l1043 0 0 -2134 0 -2133 -912 -675 c-1382 -1023 -2419 -1783
-2600 -1906 -26 -18 -52 -32 -59 -32 -6 0 -41 21 -78 47 -296 209 -1297 944
-2629 1928 l-852 630 0 2144 0 2144 2522 -6 c1387 -4 2991 -7 3565 -7z"/>
<path d="M5885 8689 c-482 -39 -961 -196 -1350 -442 -127 -80 -291 -206 -398
-303 -53 -49 -126 -109 -161 -134 -91 -63 -105 -78 -116 -122 -8 -26 -20 -43
-40 -53 -29 -15 -32 -22 -45 -95 -3 -19 -23 -60 -44 -90 -99 -143 -219 -369
-289 -545 -91 -229 -142 -426 -184 -710 -17 -120 -17 -588 0 -710 71 -489 216
-863 492 -1275 43 -63 89 -137 103 -165 28 -55 106 -142 152 -170 17 -10 73
-58 125 -106 488 -451 1047 -705 1694 -770 153 -15 514 -6 656 16 577 90 1128
355 1575 755 44 39 96 86 115 104 19 18 49 43 67 55 18 12 38 37 44 56 7 19
18 35 24 35 16 0 51 40 59 67 4 13 38 69 76 126 104 158 145 227 209 355 453
906 390 1985 -166 2837 -36 55 -85 125 -107 155 -23 30 -55 77 -70 103 -15 26
-38 53 -51 59 -13 6 -26 21 -29 34 -4 13 -26 39 -50 57 -24 17 -92 76 -150
129 -422 385 -927 630 -1476 717 -236 38 -450 47 -665 30z"/>
</g>
</svg>
